<?xml version="1.0" encoding="UTF-8"?>
<svg xmlns="http://www.w3.org/2000/svg" xmlns:xlink="http://www.w3.org/1999/xlink" width="24px" height="24px" viewBox="0 0 24 24" version="1.1">
<g id="surface1">
<path style=" stroke:none;fill-rule:evenodd;fill:rgb(0%,0%,0%);fill-opacity:1;" d="M 6.023438 4.984375 C 3.019531 5.484375 0.941406 9.804688 1.109375 15.203125 C 1.1875 17.734375 1.761719 18.894531 3.019531 19.066406 C 3.96875 19.195312 4.398438 18.933594 6.273438 17.082031 C 8.246094 15.132812 7.558594 15.339844 12 15.339844 C 16.441406 15.339844 15.753906 15.132812 17.730469 17.085938 C 19.601562 18.941406 19.757812 19.042969 20.691406 19.050781 C 22.304688 19.0625 22.867188 17.910156 22.867188 14.589844 C 22.867188 7.015625 19.203125 3.246094 14.214844 5.695312 C 12.609375 6.484375 11.394531 6.496094 9.851562 5.726562 C 8.464844 5.035156 7.191406 4.789062 6.023438 4.984375 M 8.183594 5.667969 C 8.464844 5.738281 9.078125 5.980469 9.546875 6.203125 C 11.386719 7.078125 12.710938 7.078125 14.4375 6.210938 C 18.847656 4 22.089844 7.222656 22.34375 14.074219 C 22.453125 17.101562 21.921875 18.53125 20.691406 18.5 C 20 18.480469 19.871094 18.386719 18.136719 16.671875 C 16.042969 14.605469 16.792969 14.828125 12 14.828125 C 7.207031 14.828125 7.957031 14.605469 5.863281 16.671875 C 4.128906 18.386719 4 18.480469 3.308594 18.5 C 2.070312 18.53125 1.542969 17.105469 1.660156 14.046875 C 1.890625 8.035156 4.464844 4.726562 8.183594 5.667969 M 5.878906 8.058594 C 5.824219 8.109375 5.796875 8.371094 5.796875 8.773438 L 5.796875 9.410156 L 5.195312 9.410156 C 4.347656 9.410156 4.355469 9.398438 4.378906 10.398438 L 4.398438 11.214844 L 5.789062 11.253906 L 5.808594 11.953125 L 5.828125 12.648438 L 7.535156 12.648438 L 7.566406 11.964844 L 7.601562 11.285156 L 8.25 11.265625 C 9.0625 11.242188 9.066406 11.238281 9.066406 10.351562 C 9.066406 9.453125 9.027344 9.410156 8.183594 9.410156 L 7.566406 9.410156 L 7.566406 8.773438 C 7.566406 8.371094 7.539062 8.109375 7.488281 8.058594 C 7.375 7.945312 5.988281 7.945312 5.878906 8.058594 M 17.128906 8.023438 C 16.851562 8.082031 16.515625 8.484375 16.464844 8.820312 C 16.335938 9.664062 17.296875 10.253906 17.992188 9.757812 C 18.878906 9.125 18.214844 7.792969 17.128906 8.023438 M 7.023438 9.167969 C 7.023438 9.980469 7.066406 10.023438 7.890625 10.023438 L 8.453125 10.023438 L 8.453125 10.703125 L 7.808594 10.703125 C 7.027344 10.703125 7.023438 10.710938 7.023438 11.550781 L 7.023438 12.136719 L 6.339844 12.136719 L 6.339844 11.503906 C 6.339844 10.707031 6.339844 10.703125 5.542969 10.703125 L 4.910156 10.703125 L 4.910156 10.035156 L 5.558594 10.011719 C 6.347656 9.984375 6.339844 9.992188 6.339844 9.152344 L 6.339844 8.523438 L 7.023438 8.523438 L 7.023438 9.167969 M 17.695312 8.691406 C 17.949219 8.941406 17.769531 9.410156 17.421875 9.410156 C 17.359375 9.410156 17.238281 9.332031 17.144531 9.242188 C 17.050781 9.148438 16.976562 9.027344 16.976562 8.964844 C 16.976562 8.90625 17.050781 8.78125 17.144531 8.691406 C 17.238281 8.597656 17.359375 8.523438 17.421875 8.523438 C 17.480469 8.523438 17.605469 8.597656 17.695312 8.691406 M 15.171875 9.816406 C 14.375 10.339844 14.726562 11.589844 15.667969 11.589844 C 16.425781 11.589844 16.882812 10.828125 16.53125 10.152344 C 16.300781 9.707031 15.601562 9.535156 15.171875 9.816406 M 18.632812 9.816406 C 17.597656 10.449219 18.550781 12.050781 19.632812 11.492188 C 20.5 11.042969 20.140625 9.683594 19.160156 9.683594 C 18.976562 9.683594 18.765625 9.734375 18.632812 9.816406 M 15.964844 10.339844 C 16.234375 10.582031 16.039062 11.046875 15.675781 11.046875 C 15.324219 11.046875 15.15625 10.617188 15.410156 10.363281 C 15.574219 10.199219 15.796875 10.1875 15.964844 10.339844 M 19.496094 10.449219 C 19.589844 10.617188 19.589844 10.65625 19.496094 10.824219 C 19.296875 11.183594 18.75 11.054688 18.75 10.648438 C 18.75 10.222656 19.292969 10.078125 19.496094 10.449219 M 16.992188 11.429688 C 16.269531 11.789062 16.28125 12.84375 17.011719 13.167969 C 17.433594 13.355469 17.792969 13.292969 18.101562 12.984375 C 18.882812 12.203125 17.984375 10.941406 16.992188 11.429688 M 17.695312 12.03125 C 17.949219 12.285156 17.769531 12.75 17.421875 12.75 C 17.359375 12.75 17.238281 12.675781 17.144531 12.582031 C 17.050781 12.492188 16.976562 12.367188 16.976562 12.308594 C 16.976562 12.246094 17.050781 12.125 17.144531 12.03125 C 17.238281 11.9375 17.359375 11.863281 17.421875 11.863281 C 17.480469 11.863281 17.605469 11.9375 17.695312 12.03125 M 10.039062 13.308594 C 9.730469 13.613281 10.007812 13.773438 10.835938 13.773438 C 11.652344 13.769531 11.746094 13.738281 11.714844 13.457031 L 11.691406 13.261719 L 10.90625 13.242188 C 10.355469 13.230469 10.097656 13.25 10.039062 13.308594 M 12.320312 13.269531 C 12.238281 13.351562 12.269531 13.617188 12.367188 13.699219 C 12.710938 13.984375 14.199219 13.691406 14.003906 13.378906 C 13.925781 13.257812 12.433594 13.160156 12.320312 13.269531 "/>
</g>
</svg>
