<?xml version="1.0" encoding="UTF-8"?>
<svg xmlns="http://www.w3.org/2000/svg" xmlns:xlink="http://www.w3.org/1999/xlink" width="48px" height="48px" viewBox="0 0 48 48" version="1.1">
<g id="surface1">
<path style=" stroke:none;fill-rule:evenodd;fill:rgb(0%,0%,0%);fill-opacity:1;" d="M 26.460938 1.789062 C 24.390625 4.558594 19.53125 14.746094 17.851562 19.839844 C 15.152344 28.027344 16.722656 35.757812 21.574219 38.144531 C 22.804688 38.75 23.019531 38.945312 23.113281 39.535156 C 23.171875 39.910156 23.386719 41.28125 23.585938 42.574219 C 23.9375 44.832031 24.261719 45.574219 24.757812 45.265625 C 25.078125 45.070312 25.042969 43.828125 24.65625 41.644531 C 24.15625 38.792969 24.175781 38.675781 25.152344 38.609375 C 30.566406 38.257812 32.71875 29.242188 30.34375 16.875 C 30.054688 15.371094 29.273438 11.28125 28.605469 7.792969 C 27.277344 0.808594 27.25 0.734375 26.460938 1.789062 M 28.246094 13.371094 C 30.910156 26.710938 30.414062 33.710938 26.609375 36.359375 C 25.9375 36.828125 24.480469 37.046875 24.164062 36.730469 C 23.953125 36.519531 23.960938 27.347656 24.171875 25.261719 C 24.304688 23.949219 24.277344 23.671875 24.015625 23.671875 C 23.363281 23.671875 22.929688 27.191406 22.914062 32.601562 C 22.910156 34.921875 22.824219 36.820312 22.730469 36.820312 C 21.925781 36.824219 20.0625 35.058594 19.328125 33.597656 C 16.332031 27.632812 17.941406 20.515625 25.570312 6.027344 L 26.609375 4.054688 L 26.976562 6.464844 C 27.179688 7.792969 27.75 10.898438 28.246094 13.371094 "/>
</g>
</svg>
