<?xml version="1.0" encoding="UTF-8"?>
<svg version="1.1" xmlns="http://www.w3.org/2000/svg" width="100" height="100">
<path d="M0 0 C1.36560059 0.00303635 1.36560059 0.00303635 2.75878906 0.00613403 C3.68723633 0.00517731 4.61568359 0.00422058 5.57226562 0.00323486 C7.53938871 0.00255298 9.50651403 0.00440781 11.47363281 0.00857544 C14.49581932 0.01392358 17.51785721 0.00863071 20.54003906 0.00222778 C22.44628939 0.00288856 24.35253963 0.00416972 26.25878906 0.00613403 C27.16918945 0.0041098 28.07958984 0.00208557 29.01757812 0 C35.39383938 0.02399685 35.39383938 0.02399685 36.50878906 1.13894653 C36.63378906 3.63894653 36.63378906 3.63894653 36.50878906 6.13894653 C34.56014981 8.08758578 31.61070186 7.26813393 29.01757812 7.27789307 C28.10717773 7.27586884 27.19677734 7.2738446 26.25878906 7.27175903 C25.3303418 7.27271576 24.40189453 7.27367249 23.4453125 7.2746582 C21.47818942 7.27534008 19.5110641 7.27348525 17.54394531 7.26931763 C14.5217588 7.26396948 11.49972092 7.26926236 8.47753906 7.27566528 C6.57128873 7.2750045 4.6650385 7.27372334 2.75878906 7.27175903 C1.39318848 7.27479538 1.39318848 7.27479538 0 7.27789307 C-6.37626125 7.25389622 -6.37626125 7.25389622 -7.49121094 6.13894653 C-7.61621094 3.63894653 -7.61621094 3.63894653 -7.49121094 1.13894653 C-5.54257169 -0.80969271 -2.59312374 0.00975913 0 0 Z " fill="#000000" transform="translate(36.4912109375,61.861053466796875)"/>
<path d="M0 0 C1.36560059 0.00303635 1.36560059 0.00303635 2.75878906 0.00613403 C3.68723633 0.00517731 4.61568359 0.00422058 5.57226562 0.00323486 C7.53938871 0.00255298 9.50651403 0.00440781 11.47363281 0.00857544 C14.49581932 0.01392358 17.51785721 0.00863071 20.54003906 0.00222778 C22.44628939 0.00288856 24.35253963 0.00416972 26.25878906 0.00613403 C27.16918945 0.0041098 28.07958984 0.00208557 29.01757812 0 C35.39383938 0.02399685 35.39383938 0.02399685 36.50878906 1.13894653 C36.63378906 3.63894653 36.63378906 3.63894653 36.50878906 6.13894653 C34.56014981 8.08758578 31.61070186 7.26813393 29.01757812 7.27789307 C28.10717773 7.27586884 27.19677734 7.2738446 26.25878906 7.27175903 C25.3303418 7.27271576 24.40189453 7.27367249 23.4453125 7.2746582 C21.47818942 7.27534008 19.5110641 7.27348525 17.54394531 7.26931763 C14.5217588 7.26396948 11.49972092 7.26926236 8.47753906 7.27566528 C6.57128873 7.2750045 4.6650385 7.27372334 2.75878906 7.27175903 C1.39318848 7.27479538 1.39318848 7.27479538 0 7.27789307 C-6.37626125 7.25389622 -6.37626125 7.25389622 -7.49121094 6.13894653 C-7.61621094 3.63894653 -7.61621094 3.63894653 -7.49121094 1.13894653 C-5.54257169 -0.80969271 -2.59312374 0.00975913 0 0 Z " fill="#000000" transform="translate(36.4912109375,32.861053466796875)"/>
<path d="M0 0 C2.04993487 -0.00218517 4.09933039 -0.02034261 6.14916992 -0.03930664 C7.43887695 -0.04124023 8.72858398 -0.04317383 10.05737305 -0.04516602 C11.24387451 -0.0492749 12.43037598 -0.05338379 13.65283203 -0.05761719 C16.6237793 0.18530273 16.6237793 0.18530273 19.6237793 2.18530273 C18.7487793 7.06030273 18.7487793 7.06030273 17.6237793 8.18530273 C15.42900239 8.28545183 13.23099529 8.31611492 11.03393555 8.31811523 C10.37421249 8.31907196 9.71448944 8.32002869 9.03477478 8.3210144 C7.63678899 8.32169609 6.23880005 8.31984259 4.84082031 8.31567383 C2.69873947 8.3103338 0.55686913 8.31561473 -1.58520508 8.32202148 C-2.94132533 8.32136053 -4.29744546 8.32007902 -5.65356445 8.31811523 C-6.89356201 8.3169873 -8.13355957 8.31585938 -9.41113281 8.31469727 C-12.3762207 8.18530273 -12.3762207 8.18530273 -14.3762207 7.18530273 C-14.3762207 5.20530273 -14.3762207 3.22530273 -14.3762207 1.18530273 C-10.15985275 -0.92288124 -4.63803577 -0.00055552 0 0 Z " fill="#000000" transform="translate(43.376220703125,46.814697265625)"/>
<path d="M0 0 C3.69230769 0.69230769 3.69230769 0.69230769 5 2 C5.40256562 6.75027435 5.46650379 9.10031412 3.25 13.375 C0.56574059 16.50663598 -0.83793833 17.8018828 -4.9609375 18.1796875 C-7.125 18.25 -7.125 18.25 -11 18 C-11.66 17.34 -12.32 16.68 -13 16 C-12.8671875 13.953125 -12.8671875 13.953125 -12 12 C-10.2578125 11.234375 -10.2578125 11.234375 -8.125 10.75 C-5.4401135 9.89506297 -4.31086588 9.51706311 -2.83984375 7.0703125 C-2.12877682 5.06217373 -1.55739356 3.05452501 -1 1 C-0.67 0.67 -0.34 0.34 0 0 Z " fill="#000000" transform="translate(83,70)"/>
<path d="M0 0 C2.046875 0.1328125 2.046875 0.1328125 4 1 C4.765625 2.7421875 4.765625 2.7421875 5.25 4.875 C6.26150721 8.12129749 6.26150721 8.12129749 8.9296875 10.0546875 C11.09823855 10.77506579 11.09823855 10.77506579 13.2578125 11.234375 C15 12 15 12 15.8671875 13.953125 C15.91101563 14.62859375 15.95484375 15.3040625 16 16 C14 18 14 18 10.25 18.375 C5.87522179 18.26364201 3.34985218 16.87130187 0 14 C-2.8130885 10.41970554 -2.28073954 6.35146293 -2 2 C-1.34 1.34 -0.68 0.68 0 0 Z " fill="#000000" transform="translate(14,70)"/>
<path d="M0 0 C0.66 0.66 1.32 1.32 2 2 C1.8671875 4.046875 1.8671875 4.046875 1 6 C-0.7421875 6.765625 -0.7421875 6.765625 -2.875 7.25 C-6.12129749 8.26150721 -6.12129749 8.26150721 -8.0546875 10.9296875 C-8.77506579 13.09823855 -8.77506579 13.09823855 -9.234375 15.2578125 C-10 17 -10 17 -11.953125 17.8671875 C-12.62859375 17.91101563 -13.3040625 17.95484375 -14 18 C-16 16 -16 16 -16.375 12.25 C-16.26364201 7.87522179 -14.87130187 5.34985218 -12 2 C-8.41970554 -0.8130885 -4.35146293 -0.28073954 0 0 Z " fill="#000000" transform="translate(28,12)"/>
<path d="M0 0 C4.37477821 0.11135799 6.90014782 1.50369813 10.25 4.375 C13.05476313 7.94469854 12.39466817 12.03495488 12.25 16.375 C10.6 17.035 8.95 17.695 7.25 18.375 C5.25 16.375 5.25 16.375 4.625 12.9375 C3.68636806 9.34258661 3.68636806 9.34258661 1.37890625 8.390625 C-0.79155534 7.6628804 -0.79155534 7.6628804 -2.97265625 7.17578125 C-4.75 6.375 -4.75 6.375 -5.62109375 4.41796875 C-5.66363281 3.74378906 -5.70617187 3.06960937 -5.75 2.375 C-3.75 0.375 -3.75 0.375 0 0 Z " fill="#000000" transform="translate(75.75,11.625)"/>
<path d="M0 0 C1.134375 0.020625 2.26875 0.04125 3.4375 0.0625 C4.0625 2.4375 4.0625 2.4375 4.4375 5.0625 C2.4375 7.0625 2.4375 7.0625 -0.625 7.25 C-3.5625 7.0625 -3.5625 7.0625 -4.5625 6.0625 C-4.6875 3.5625 -4.6875 3.5625 -4.5625 1.0625 C-3.5625 0.0625 -3.5625 0.0625 0 0 Z " fill="#000000" transform="translate(58.5625,80.9375)"/>
<path d="M0 0 C2.33294775 -0.04241723 4.66702567 -0.04092937 7 0 C8 1 8 1 8.125 3.5 C8 6 8 6 7 7 C4.0625 7.1875 4.0625 7.1875 1 7 C0.34 6.34 -0.32 5.68 -1 5 C-0.625 2.375 -0.625 2.375 0 0 Z " fill="#000000" transform="translate(38,81)"/>
<path d="M0 0 C2.5 0.125 2.5 0.125 3.5 1.125 C3.6875 4.0625 3.6875 4.0625 3.5 7.125 C2.84 7.785 2.18 8.445 1.5 9.125 C-1.125 8.75 -1.125 8.75 -3.5 8.125 C-3.54241723 5.79205225 -3.54092937 3.45797433 -3.5 1.125 C-2.5 0.125 -2.5 0.125 0 0 Z " fill="#000000" transform="translate(84.5,53.875)"/>
<path d="M0 0 C2.5 0.125 2.5 0.125 3.5 1.125 C3.54092937 3.45797433 3.54241723 5.79205225 3.5 8.125 C1.125 8.75 1.125 8.75 -1.5 9.125 C-3.5 7.125 -3.5 7.125 -3.6875 4.0625 C-3.43916756 0.17195838 -3.43916756 0.17195838 0 0 Z " fill="#000000" transform="translate(15.5,53.875)"/>
<path d="M0 0 C4.70588235 0.70588235 4.70588235 0.70588235 6 2 C6.125 5 6.125 5 6 8 C5 9 5 9 2.5 9.125 C0 9 0 9 -1 8 C-1.125 4.5 -1.125 4.5 -1 1 C-0.67 0.67 -0.34 0.34 0 0 Z " fill="#000000" transform="translate(82,37)"/>
<path d="M0 0 C2.625 0.375 2.625 0.375 5 1 C5.04241723 3.33294775 5.04092937 5.66702567 5 8 C4 9 4 9 1.5 9.125 C-1 9 -1 9 -2 8 C-2.1875 5.0625 -2.1875 5.0625 -2 2 C-1.34 1.34 -0.68 0.68 0 0 Z " fill="#000000" transform="translate(14,37)"/>
<path d="M0 0 C3.0625 0.1875 3.0625 0.1875 5.0625 2.1875 C4.6875 4.8125 4.6875 4.8125 4.0625 7.1875 C1.72955225 7.22991723 -0.60452567 7.22842937 -2.9375 7.1875 C-3.9375 6.1875 -3.9375 6.1875 -4.0625 3.6875 C-3.88162605 0.07002102 -3.66418153 0.23388393 0 0 Z " fill="#000000" transform="translate(57.9375,11.8125)"/>
<path d="M0 0 C2.9375 0.1875 2.9375 0.1875 3.9375 1.1875 C4.0625 3.6875 4.0625 3.6875 3.9375 6.1875 C2.9375 7.1875 2.9375 7.1875 -0.625 7.25 C-1.759375 7.229375 -2.89375 7.20875 -4.0625 7.1875 C-4.6875 4.8125 -4.6875 4.8125 -5.0625 2.1875 C-3.0625 0.1875 -3.0625 0.1875 0 0 Z " fill="#000000" transform="translate(42.0625,11.8125)"/>
</svg>
