<?xml version="1.0" encoding="UTF-8"?>
<svg version="1.1" xmlns="http://www.w3.org/2000/svg" width="100" height="100">
<path d="M0 0 C1.47216728 -0.01441132 1.47216728 -0.01441132 2.97407532 -0.02911377 C4.0334581 -0.03336365 5.09284088 -0.03761353 6.18432617 -0.04199219 C7.82131721 -0.0505423 7.82131721 -0.0505423 9.49137878 -0.05926514 C11.80218537 -0.06871582 14.11300543 -0.07524939 16.42382812 -0.07910156 C19.9529584 -0.08880031 23.48150464 -0.11982091 27.01049805 -0.15136719 C29.2559373 -0.15789803 31.50138071 -0.16314818 33.74682617 -0.16699219 C34.80013626 -0.17933899 35.85344635 -0.19168579 36.93867493 -0.20440674 C43.55936054 -0.18435496 48.21081048 0.41220921 53.24682617 5.09863281 C53.81788086 5.77925781 54.38893555 6.45988281 54.97729492 7.16113281 C55.56124023 7.84175781 56.14518555 8.52238281 56.74682617 9.22363281 C60.17516088 13.90807913 59.69617204 19.61962855 59.16479492 25.16113281 C57.40688693 31.36675984 53.45674733 35.61270069 48.16479492 39.16113281 C45.25587198 40.13077379 43.35852884 40.29831432 40.32958984 40.32226562 C38.85742256 40.33667694 38.85742256 40.33667694 37.35551453 40.35137939 C35.76644035 40.35775421 35.76644035 40.35775421 34.14526367 40.36425781 C32.50827263 40.37280792 32.50827263 40.37280792 30.83821106 40.38153076 C28.52740448 40.39098145 26.21658441 40.39751501 23.90576172 40.40136719 C20.37663144 40.41106593 16.8480852 40.44208653 13.3190918 40.47363281 C11.07365255 40.48016366 8.82820913 40.48541381 6.58276367 40.48925781 C5.52945358 40.50160461 4.47614349 40.51395142 3.39091492 40.52667236 C-3.0279358 40.50723188 -7.73975281 40.01185915 -12.66333008 35.47753906 C-13.13254883 34.89875 -13.60176758 34.31996094 -14.08520508 33.72363281 C-14.80450195 32.85931641 -14.80450195 32.85931641 -15.53833008 31.97753906 C-19.60396768 26.28319725 -19.39655468 20.99855502 -18.83520508 14.16113281 C-17.07344966 8.32531799 -12.64957011 4.68454916 -7.83520508 1.16113281 C-4.92628214 0.19149183 -3.028939 0.0239513 0 0 Z M-1.83520508 3.16113281 C-2.16520508 4.15113281 -2.49520508 5.14113281 -2.83520508 6.16113281 C-3.82520508 6.65613281 -3.82520508 6.65613281 -4.83520508 7.16113281 C-4.83520508 6.50113281 -4.83520508 5.84113281 -4.83520508 5.16113281 C-8.74923457 6.43054778 -10.62593381 7.67280975 -12.83520508 11.16113281 C-11.84520508 11.16113281 -10.85520508 11.16113281 -9.83520508 11.16113281 C-9.83520508 12.15113281 -9.83520508 13.14113281 -9.83520508 14.16113281 C-10.82520508 14.16113281 -11.81520508 14.16113281 -12.83520508 14.16113281 C-13.16520508 13.50113281 -13.49520508 12.84113281 -13.83520508 12.16113281 C-14.16520508 13.15113281 -14.49520508 14.14113281 -14.83520508 15.16113281 C-14.17520508 15.16113281 -13.51520508 15.16113281 -12.83520508 15.16113281 C-13.57770508 15.77988281 -13.57770508 15.77988281 -14.33520508 16.41113281 C-16.26906599 18.2831562 -16.26906599 18.2831562 -15.83520508 22.16113281 C-14.41853038 23.91229011 -14.41853038 23.91229011 -12.83520508 25.16113281 C-13.49520508 25.49113281 -14.15520508 25.82113281 -14.83520508 26.16113281 C-14.17520508 26.82113281 -13.51520508 27.48113281 -12.83520508 28.16113281 C-12.83520508 27.50113281 -12.83520508 26.84113281 -12.83520508 26.16113281 C-11.84520508 26.16113281 -10.85520508 26.16113281 -9.83520508 26.16113281 C-9.83520508 27.15113281 -9.83520508 28.14113281 -9.83520508 29.16113281 C-10.82520508 29.49113281 -11.81520508 29.82113281 -12.83520508 30.16113281 C-11.88645508 30.98613281 -10.93770508 31.81113281 -9.96020508 32.66113281 C-9.4265332 33.12519531 -8.89286133 33.58925781 -8.34301758 34.06738281 C-6.87584086 35.35685739 -6.87584086 35.35685739 -4.83520508 35.16113281 C-4.83520508 34.50113281 -4.83520508 33.84113281 -4.83520508 33.16113281 C-4.17520508 33.49113281 -3.51520508 33.82113281 -2.83520508 34.16113281 C-2.50520508 35.15113281 -2.17520508 36.14113281 -1.83520508 37.16113281 C-0.18520508 37.16113281 1.46479492 37.16113281 3.16479492 37.16113281 C3.49479492 35.51113281 3.82479492 33.86113281 4.16479492 32.16113281 C3.17479492 32.16113281 2.18479492 32.16113281 1.16479492 32.16113281 C0.50479492 32.16113281 -0.15520508 32.16113281 -0.83520508 32.16113281 C-1.16520508 31.50113281 -1.49520508 30.84113281 -1.83520508 30.16113281 C-0.51520508 29.83113281 0.80479492 29.50113281 2.16479492 29.16113281 C1.50479492 27.84113281 0.84479492 26.52113281 0.16479492 25.16113281 C-0.49520508 25.16113281 -1.15520508 25.16113281 -1.83520508 25.16113281 C-1.17520508 24.17113281 -0.51520508 23.18113281 0.16479492 22.16113281 C-0.15646636 19.52679028 -0.64875556 17.53403185 -1.83520508 15.16113281 C-0.84520508 14.83113281 0.14479492 14.50113281 1.16479492 14.16113281 C1.89803288 12.14604923 1.89803288 12.14604923 2.16479492 10.16113281 C0.84479492 10.16113281 -0.47520508 10.16113281 -1.83520508 10.16113281 C-1.50520508 9.50113281 -1.17520508 8.84113281 -0.83520508 8.16113281 C0.48479492 8.49113281 1.80479492 8.82113281 3.16479492 9.16113281 C3.16479492 8.17113281 3.16479492 7.18113281 3.16479492 6.16113281 C3.16479492 5.17113281 3.16479492 4.18113281 3.16479492 3.16113281 C1.51479492 3.16113281 -0.13520508 3.16113281 -1.83520508 3.16113281 Z M5.16479492 3.16113281 C5.49479492 3.82113281 5.82479492 4.48113281 6.16479492 5.16113281 C6.82479492 4.50113281 7.48479492 3.84113281 8.16479492 3.16113281 C7.17479492 3.16113281 6.18479492 3.16113281 5.16479492 3.16113281 Z M5.36401367 11.44238281 C2.65577927 15.3238914 2.70536346 19.61016075 3.16479492 24.16113281 C5.01398647 29.59993147 8.5406633 32.93475007 13.16479492 36.16113281 C18.09921341 37.80593898 22.42889992 37.75133711 27.28979492 36.09863281 C31.80826413 33.05357748 35.42505687 29.38034698 37.16479492 24.16113281 C37.5330298 18.54555092 37.40370898 14.96726335 34.16479492 10.16113281 C29.82705387 5.78237293 26.69461107 3.3270224 20.35229492 2.91113281 C13.40294519 3.05088208 9.642213 6.32201826 5.36401367 11.44238281 Z M32.16479492 3.16113281 C32.58631836 3.71542969 33.0078418 4.26972656 33.44213867 4.84082031 C33.98999023 5.56527344 34.5378418 6.28972656 35.10229492 7.03613281 C35.92020508 8.11507812 35.92020508 8.11507812 36.75463867 9.21582031 C40.56458003 14.47163969 39.79270613 20.92297145 39.16479492 27.16113281 C37.54949666 31.2234874 35.22856529 34.09736244 32.16479492 37.16113281 C39.10664561 37.67323655 44.38201426 37.27065518 50.16479492 33.16113281 C53.86090075 29.46502699 56.10373836 25.54638013 56.19995117 20.21191406 C55.75368095 14.49747824 53.86038551 10.57063478 49.50854492 6.68066406 C43.94374097 2.60969068 38.87575429 2.60599831 32.16479492 3.16113281 Z M5.16479492 35.16113281 C5.16479492 35.82113281 5.16479492 36.48113281 5.16479492 37.16113281 C6.15479492 36.83113281 7.14479492 36.50113281 8.16479492 36.16113281 C7.17479492 35.83113281 6.18479492 35.50113281 5.16479492 35.16113281 Z " fill="#000000" transform="translate(29.835205078125,29.8388671875)"/>
<path d="M0 0 C0.99 0 1.98 0 3 0 C3 1.32 3 2.64 3 4 C2.01 4 1.02 4 0 4 C0 2.68 0 1.36 0 0 Z " fill="#000000" transform="translate(81,48)"/>
<path d="M0 0 C0.99 0 1.98 0 3 0 C3 1.32 3 2.64 3 4 C2.01 4 1.02 4 0 4 C0 2.68 0 1.36 0 0 Z " fill="#000000" transform="translate(76,48)"/>
<path d="M0 0 C0.99 0 1.98 0 3 0 C3 1.32 3 2.64 3 4 C2.01 4 1.02 4 0 4 C0 2.68 0 1.36 0 0 Z " fill="#000000" transform="translate(71,48)"/>
<path d="M0 0 C0.99 0.33 1.98 0.66 3 1 C2.67 1.99 2.34 2.98 2 4 C1.34 4 0.68 4 0 4 C0 2.68 0 1.36 0 0 Z " fill="#000000" transform="translate(25,48)"/>
<path d="M0 0 C0.66 0 1.32 0 2 0 C2 1.32 2 2.64 2 4 C1.01 3.67 0.02 3.34 -1 3 C-0.67 2.01 -0.34 1.02 0 0 Z " fill="#000000" transform="translate(18,48)"/>
<path d="M0 0 C0.99 0 1.98 0 3 0 C3 0.99 3 1.98 3 3 C2.01 3 1.02 3 0 3 C0 2.01 0 1.02 0 0 Z " fill="#000000" transform="translate(21,60)"/>
<path d="M0 0 C0.99 0 1.98 0 3 0 C3 0.99 3 1.98 3 3 C2.01 3 1.02 3 0 3 C0 2.01 0 1.02 0 0 Z " fill="#000000" transform="translate(25,56)"/>
<path d="M0 0 C0.99 0 1.98 0 3 0 C3 0.99 3 1.98 3 3 C2.01 3 1.02 3 0 3 C0 2.01 0 1.02 0 0 Z " fill="#000000" transform="translate(21,52)"/>
<path d="M0 0 C0.99 0 1.98 0 3 0 C3 0.99 3 1.98 3 3 C2.01 3 1.02 3 0 3 C0 2.01 0 1.02 0 0 Z " fill="#000000" transform="translate(21,45)"/>
<path d="M0 0 C0.99 0 1.98 0 3 0 C3 0.99 3 1.98 3 3 C2.01 3 1.02 3 0 3 C0 2.01 0 1.02 0 0 Z " fill="#000000" transform="translate(25,41)"/>
<path d="M0 0 C0.99 0 1.98 0 3 0 C3 0.99 3 1.98 3 3 C2.01 3 1.02 3 0 3 C0 2.01 0 1.02 0 0 Z " fill="#000000" transform="translate(21,37)"/>
</svg>
