<?xml version="1.0" encoding="UTF-8"?>
<svg version="1.1" xmlns="http://www.w3.org/2000/svg" width="100" height="100">
<path d="M0 0 C1.67542976 0.28604898 3.34385343 0.61781233 5 1 C5.495 3.475 5.495 3.475 6 6 C6.8353125 6.14695312 6.8353125 6.14695312 7.6875 6.296875 C17.52312419 8.22412569 24.74737299 11.9570909 31 20 C33.48201356 24.38652892 35.62068871 28.77742393 36.47265625 33.76953125 C36.73369141 34.87361328 36.73369141 34.87361328 37 36 C37.825 36.33 38.65 36.66 39.5 37 C40.325 37.33 41.15 37.66 42 38 C42.9375 40.5 42.9375 40.5 43 43 C41 45 41 45 38.9609375 45.34375 C38.31382813 45.5603125 37.66671875 45.776875 37 46 C36.06973467 48.01711849 36.06973467 48.01711849 35.625 50.5 C33.02625551 60.18999939 27.45672354 66.71096443 19 72 C14.78127067 74.12448556 10.78055556 75.44817708 6 75 C6.04125 75.78375 6.0825 76.5675 6.125 77.375 C6 80 6 80 4 82 C-0.55555556 81.44444444 -0.55555556 81.44444444 -2 80 C-2.04063832 78.33382885 -2.042721 76.66611905 -2 75 C-3.155 74.9175 -4.31 74.835 -5.5 74.75 C-13.21445523 73.7567809 -19.7828876 69.69361682 -25 64 C-29.71464591 57.73548199 -32.04266477 51.75771654 -33 44 C-34.65 44 -36.3 44 -38 44 C-38.625 41.625 -38.625 41.625 -39 39 C-37 37 -37 37 -34.96484375 36.66015625 C-34.31644531 36.44230469 -33.66804688 36.22445312 -33 36 C-32.03350191 33.95111193 -32.03350191 33.95111193 -31.5625 31.4375 C-29.05486346 22.11015351 -23.96511493 15.52182814 -16 10 C-11.45961667 7.83906889 -7.06754826 6 -2 6 C-1.855625 5.195625 -1.71125 4.39125 -1.5625 3.5625 C-1 1 -1 1 0 0 Z M-19.5546875 22.97265625 C-24.76153246 30.23483475 -26.7999473 36.49485011 -25.59375 45.41796875 C-23.62148524 53.99472538 -19.15271136 60.00973626 -12 65 C-5.5156687 69.02028541 1.54237904 68.86368884 9 68 C16.47611082 65.81187 21.62699784 61.3463346 26 55 C29.93762952 47.78101254 30.95390194 40.21643624 28.84375 32.26171875 C25.81202304 24.13500621 20.63032888 18.94902986 13 15 C1.63650688 10.61409038 -11.81323749 13.14996214 -19.5546875 22.97265625 Z " fill="#000000" transform="translate(48,9)"/>
<path d="M0 0 C2.4375 2.125 2.4375 2.125 4 5 C3.85384044 8.72706873 3.65788293 10.34211707 1 13 C-6.1372549 13.67973856 -6.1372549 13.67973856 -9.0625 11.375 C-10.33302894 8.15632669 -9.98013473 6.29045231 -9 3 C-6.70390384 -0.62541498 -4.06537984 -0.66373548 0 0 Z " fill="#000000" transform="translate(53,43)"/>
</svg>
