<?xml version="1.0" encoding="UTF-8" standalone="no"?>
<svg
   version="1.1"
   preserveAspectRatio="xMidYMid"
   viewBox="4.9987812 20.079034 52.004186 22.430178"
   width="147.94"
   height="55"
   id="svg11"
   sodipodi:docname="phenotype-48px.svg"
   inkscape:version="1.3.2 (091e20e, 2023-11-25, custom)"
   xmlns:inkscape="http://www.inkscape.org/namespaces/inkscape"
   xmlns:sodipodi="http://sodipodi.sourceforge.net/DTD/sodipodi-0.dtd"
   xmlns:xlink="http://www.w3.org/1999/xlink"
   xmlns="http://www.w3.org/2000/svg"
   xmlns:svg="http://www.w3.org/2000/svg">
  <sodipodi:namedview
     id="namedview11"
     pagecolor="#505050"
     bordercolor="#eeeeee"
     borderopacity="1"
     inkscape:showpageshadow="0"
     inkscape:pageopacity="0"
     inkscape:pagecheckerboard="0"
     inkscape:deskcolor="#505050"
     inkscape:zoom="5.6568543"
     inkscape:cx="104.56341"
     inkscape:cy="38.095377"
     inkscape:window-width="1920"
     inkscape:window-height="991"
     inkscape:window-x="-9"
     inkscape:window-y="-9"
     inkscape:window-maximized="1"
     inkscape:current-layer="svg11" />
  <defs
     id="defs1">
    <path
       d="M 18.46,36.65 22.08,30"
       id="i3pqYWAa8s" />
    <path
       d="m 40.58,24.27 -2.73,0.56 1.41,-3.01 z"
       id="a4UaY2qN8z" />
    <path
       d="m 40.33,33.08 c -5.46,3.27 -13.69,4.46 -20.64,0"
       id="a6ByEwLuB0" />
    <path
       d="M 40.33,24 C 34.87,20.72 26.64,19.53 19.69,24"
       id="a4O6z5kVRp" />
    <path
       d="m 54,30 c 0,3.31 -2.69,6 -6,6 -3.31,0 -6,-2.69 -6,-6 0,-3.31 2.69,-6 6,-6 3.31,0 6,2.69 6,6 z"
       id="cUwhRUdjN" />
    <path
       d="m 18,30 c 0,3.31 -2.69,6 -6,6 -3.31,0 -6,-2.69 -6,-6 0,-3.31 2.69,-6 6,-6 3.31,0 6,2.69 6,6 z"
       id="f8F9JMiSJ" />
  </defs>
  <g
     id="g11"
     transform="matrix(0.89135408,0,0,0.83666523,3.5277676,7.3682399)">
    <g
       id="g2"
       transform="translate(0.74348658)">
      <g
         id="g1">
        <use
           xlink:href="#i3pqYWAa8s"
           opacity="1"
           fill-opacity="0"
           stroke="#000000"
           stroke-width="2"
           stroke-opacity="1"
           id="use1" />
      </g>
    </g>
    <g
       id="g4"
       transform="translate(0.74348658)">
      <g
         id="g3">
        <use
           xlink:href="#a4UaY2qN8z"
           opacity="1"
           fill-opacity="0"
           stroke="#000000"
           stroke-width="2"
           stroke-opacity="1"
           id="use2" />
      </g>
    </g>
    <g
       id="g6"
       transform="translate(0.74348658)">
      <g
         id="g5">
        <use
           xlink:href="#a6ByEwLuB0"
           opacity="1"
           fill-opacity="0"
           stroke="#000000"
           stroke-width="2"
           stroke-opacity="1"
           id="use4" />
      </g>
    </g>
    <g
       id="g8"
       transform="translate(0.74348658)">
      <g
         id="g7">
        <use
           xlink:href="#a4O6z5kVRp"
           opacity="1"
           fill-opacity="0"
           stroke="#000000"
           stroke-width="2"
           stroke-opacity="1"
           id="use6" />
      </g>
    </g>
    <g
       id="g9"
       transform="translate(0.74348658)">
      <use
         xlink:href="#cUwhRUdjN"
         opacity="1"
         fill="#000000"
         fill-opacity="1"
         id="use8" />
    </g>
    <g
       id="g10"
       transform="translate(0.74348658)">
      <use
         xlink:href="#f8F9JMiSJ"
         opacity="1"
         fill="#000000"
         fill-opacity="1"
         id="use9" />
    </g>
  </g>
  <rect
     style="fill:#000000;stroke-width:0.407821"
     id="rect11"
     width="1.6844271"
     height="4.440762"
     x="7.3594661"
     y="37.91293" />
  <rect
     style="fill:#000000;stroke-width:0.407821"
     id="rect11-7"
     width="1.6844271"
     height="4.440762"
     x="-42.39135"
     y="7.3664331"
     transform="rotate(-90)" />
  <rect
     style="fill:#000000;stroke-width:0.407821"
     id="rect11-7-2"
     width="1.6844271"
     height="4.440762"
     x="-42.330395"
     y="7.3303547"
     transform="rotate(-90)" />
  <rect
     style="fill:#000000;stroke-width:0.407821"
     id="rect11-7-9"
     width="1.6844271"
     height="4.440762"
     x="-42.359676"
     y="7.3480291"
     transform="rotate(-90)" />
  <rect
     style="fill:#000000;stroke-width:0.407821"
     id="rect11-7-2-3"
     width="1.6844271"
     height="4.440762"
     x="-42.334766"
     y="13.458383"
     transform="rotate(-90)" />
  <rect
     style="fill:#000000;stroke-width:0.407821"
     id="rect11-7-7"
     width="1.6844271"
     height="4.440762"
     x="-42.352345"
     y="13.452955"
     transform="rotate(-90)" />
  <rect
     style="fill:#000000;stroke-width:0.407821"
     id="rect11-7-2-5"
     width="1.6844271"
     height="4.440762"
     x="-42.379997"
     y="7.7750483"
     transform="rotate(-90)" />
  <rect
     style="fill:#000000;stroke-width:0.407821"
     id="rect11-7-9-0"
     width="1.6844271"
     height="4.440762"
     x="-42.409279"
     y="7.7927227"
     transform="rotate(-90)" />
  <rect
     style="fill:#000000;stroke-width:0.407821"
     id="rect11-7-2-3-8"
     width="1.6844271"
     height="4.440762"
     x="-42.384369"
     y="7.377933"
     transform="rotate(-90)" />
  <rect
     style="fill:#000000;stroke-width:0.407821"
     id="rect11-7-7-6"
     width="1.6844271"
     height="4.440762"
     x="-42.401947"
     y="7.3725066"
     transform="rotate(-90)" />
  <rect
     style="fill:#000000;stroke-width:0.407821"
     id="rect11-7-2-34"
     width="1.6844271"
     height="4.440762"
     x="-42.327435"
     y="19.563311"
     transform="rotate(-90)" />
  <rect
     style="fill:#000000;stroke-width:0.407821"
     id="rect11-7-9-2"
     width="1.6844271"
     height="4.440762"
     x="-42.356716"
     y="19.580984"
     transform="rotate(-90)" />
  <rect
     style="fill:#000000;stroke-width:0.407821"
     id="rect11-7-2-3-1"
     width="1.6844271"
     height="4.440762"
     x="-42.331806"
     y="25.691338"
     transform="rotate(-90)" />
  <rect
     style="fill:#000000;stroke-width:0.407821"
     id="rect11-7-2-0"
     width="1.6844271"
     height="4.440762"
     x="-42.344791"
     y="25.708485"
     transform="rotate(-90)" />
  <rect
     style="fill:#000000;stroke-width:0.407821"
     id="rect11-7-9-3"
     width="1.6844271"
     height="4.440762"
     x="-42.374073"
     y="25.726158"
     transform="rotate(-90)" />
  <rect
     style="fill:#000000;stroke-width:0.407821"
     id="rect11-7-2-3-7"
     width="1.6844271"
     height="4.440762"
     x="-42.349163"
     y="31.836512"
     transform="rotate(-90)" />
  <rect
     style="fill:#000000;stroke-width:0.407821"
     id="rect11-7-7-8"
     width="1.6844271"
     height="4.440762"
     x="-42.366741"
     y="31.831087"
     transform="rotate(-90)" />
  <rect
     style="fill:#000000;stroke-width:0.407821"
     id="rect11-7-2-34-1"
     width="1.6844271"
     height="4.440762"
     x="-42.341831"
     y="37.941437"
     transform="rotate(-90)" />
  <rect
     style="fill:#000000;stroke-width:0.407821"
     id="rect11-7-9-2-2"
     width="1.6844271"
     height="4.440762"
     x="-42.371113"
     y="37.95911"
     transform="rotate(-90)" />
  <rect
     style="fill:#000000;stroke-width:0.407821"
     id="rect11-7-2-3-1-1"
     width="1.6844271"
     height="4.440762"
     x="-42.346203"
     y="44.069462"
     transform="rotate(-90)" />
  <rect
     style="fill:#000000;stroke-width:0.407821"
     id="rect11-7-2-34-1-0"
     width="1.6844271"
     height="4.440762"
     x="-42.310028"
     y="44.044895"
     transform="rotate(-90)" />
  <rect
     style="fill:#000000;stroke-width:0.407821"
     id="rect11-7-9-2-2-2"
     width="1.6844271"
     height="4.440762"
     x="-42.33931"
     y="44.062569"
     transform="rotate(-90)" />
  <rect
     style="fill:#000000;stroke-width:0.407821"
     id="rect11-7-2-3-1-1-5"
     width="1.6844271"
     height="4.440762"
     x="-42.3144"
     y="50.17292"
     transform="rotate(-90)" />
  <rect
     style="fill:#000000;stroke-width:0.407821"
     id="rect11-0"
     width="1.6844271"
     height="4.440762"
     x="20.074984"
     y="-11.811014"
     transform="rotate(90)" />
  <rect
     style="fill:#000000;stroke-width:0.407821"
     id="rect11-7-4"
     width="1.6844271"
     height="4.440762"
     x="7.3535948"
     y="20.112383" />
  <rect
     style="fill:#000000;stroke-width:0.407821"
     id="rect11-4"
     width="1.6844271"
     height="4.440762"
     x="-42.390312"
     y="50.202461"
     transform="rotate(-90)" />
  <rect
     style="fill:#000000;stroke-width:0.407821"
     id="rect11-7-8"
     width="1.6844271"
     height="4.440762"
     x="-54.638306"
     y="-42.368687"
     transform="scale(-1)" />
  <rect
     style="fill:#000000;stroke-width:0.407821"
     id="rect11-4-5"
     width="1.6844271"
     height="4.440762"
     x="-54.640499"
     y="-24.515785"
     transform="scale(-1)" />
  <rect
     style="fill:#000000;stroke-width:0.407821"
     id="rect11-7-8-3"
     width="1.6844271"
     height="4.440762"
     x="20.079945"
     y="-54.618874"
     transform="rotate(90)" />
  <rect
     style="fill:#000000;stroke-width:0.407821"
     id="rect11-7-2-2"
     width="1.6844271"
     height="4.440762"
     x="-42.348892"
     y="50.208275"
     transform="rotate(-90)" />
  <rect
     style="fill:#000000;stroke-width:0.407821"
     id="rect11-7-9-1"
     width="1.6844271"
     height="4.440762"
     x="-42.378174"
     y="50.225948"
     transform="rotate(-90)" />
  <rect
     style="fill:#000000;stroke-width:0.407821"
     id="rect11-7-2-3-5"
     width="1.6844271"
     height="4.440762"
     x="-42.353264"
     y="49.811153"
     transform="rotate(-90)" />
  <rect
     style="fill:#000000;stroke-width:0.407821"
     id="rect11-7-7-2"
     width="1.6844271"
     height="4.440762"
     x="-42.388866"
     y="49.805729"
     transform="rotate(-90)" />
  <rect
     style="fill:#000000;stroke-width:0.407821"
     id="rect11-7-5"
     width="1.6844271"
     height="4.440762"
     x="-21.820187"
     y="7.3572001"
     transform="rotate(-90)" />
  <rect
     style="fill:#000000;stroke-width:0.407821"
     id="rect11-7-2-26"
     width="1.6844271"
     height="4.440762"
     x="-21.759232"
     y="7.3211222"
     transform="rotate(-90)" />
  <rect
     style="fill:#000000;stroke-width:0.407821"
     id="rect11-7-9-37"
     width="1.6844271"
     height="4.440762"
     x="-21.788513"
     y="7.3387966"
     transform="rotate(-90)" />
  <rect
     style="fill:#000000;stroke-width:0.407821"
     id="rect11-7-2-3-73"
     width="1.6844271"
     height="4.440762"
     x="-21.763603"
     y="13.44915"
     transform="rotate(-90)" />
  <rect
     style="fill:#000000;stroke-width:0.407821"
     id="rect11-7-7-9"
     width="1.6844271"
     height="4.440762"
     x="-21.781181"
     y="13.443723"
     transform="rotate(-90)" />
  <rect
     style="fill:#000000;stroke-width:0.407821"
     id="rect11-7-2-5-7"
     width="1.6844271"
     height="4.440762"
     x="-21.808834"
     y="7.7658153"
     transform="rotate(-90)" />
  <rect
     style="fill:#000000;stroke-width:0.407821"
     id="rect11-7-9-0-1"
     width="1.6844271"
     height="4.440762"
     x="-21.838116"
     y="7.7834907"
     transform="rotate(-90)" />
  <rect
     style="fill:#000000;stroke-width:0.407821"
     id="rect11-7-2-3-8-0"
     width="1.6844271"
     height="4.440762"
     x="-21.813206"
     y="7.368701"
     transform="rotate(-90)" />
  <rect
     style="fill:#000000;stroke-width:0.407821"
     id="rect11-7-7-6-8"
     width="1.6844271"
     height="4.440762"
     x="-21.830784"
     y="7.3632746"
     transform="rotate(-90)" />
  <rect
     style="fill:#000000;stroke-width:0.407821"
     id="rect11-7-2-34-9"
     width="1.6844271"
     height="4.440762"
     x="-21.756271"
     y="19.554079"
     transform="rotate(-90)" />
  <rect
     style="fill:#000000;stroke-width:0.407821"
     id="rect11-7-9-2-8"
     width="1.6844271"
     height="4.440762"
     x="-21.785553"
     y="19.571753"
     transform="rotate(-90)" />
  <rect
     style="fill:#000000;stroke-width:0.407821"
     id="rect11-7-2-3-1-3"
     width="1.6844271"
     height="4.440762"
     x="-21.760643"
     y="25.682106"
     transform="rotate(-90)" />
  <rect
     style="fill:#000000;stroke-width:0.407821"
     id="rect11-7-2-0-6"
     width="1.6844271"
     height="4.440762"
     x="-21.773628"
     y="25.699253"
     transform="rotate(-90)" />
  <rect
     style="fill:#000000;stroke-width:0.407821"
     id="rect11-7-9-3-8"
     width="1.6844271"
     height="4.440762"
     x="-21.80291"
     y="25.716927"
     transform="rotate(-90)" />
  <rect
     style="fill:#000000;stroke-width:0.407821"
     id="rect11-7-2-3-7-6"
     width="1.6844271"
     height="4.440762"
     x="-21.778"
     y="31.82728"
     transform="rotate(-90)" />
  <rect
     style="fill:#000000;stroke-width:0.407821"
     id="rect11-7-7-8-9"
     width="1.6844271"
     height="4.440762"
     x="-21.795578"
     y="31.821856"
     transform="rotate(-90)" />
  <rect
     style="fill:#000000;stroke-width:0.407821"
     id="rect11-7-2-34-1-1"
     width="1.6844271"
     height="4.440762"
     x="-21.770668"
     y="37.932205"
     transform="rotate(-90)" />
  <rect
     style="fill:#000000;stroke-width:0.407821"
     id="rect11-7-9-2-2-0"
     width="1.6844271"
     height="4.440762"
     x="-21.79995"
     y="37.949879"
     transform="rotate(-90)" />
  <rect
     style="fill:#000000;stroke-width:0.407821"
     id="rect11-7-2-3-1-1-0"
     width="1.6844271"
     height="4.440762"
     x="-21.77504"
     y="44.06023"
     transform="rotate(-90)" />
  <rect
     style="fill:#000000;stroke-width:0.407821"
     id="rect11-7-2-34-1-0-2"
     width="1.6844271"
     height="4.440762"
     x="-21.738865"
     y="44.035664"
     transform="rotate(-90)" />
  <rect
     style="fill:#000000;stroke-width:0.407821"
     id="rect11-7-9-2-2-2-0"
     width="1.6844271"
     height="4.440762"
     x="-21.768147"
     y="44.053337"
     transform="rotate(-90)" />
  <rect
     style="fill:#000000;stroke-width:0.407821"
     id="rect11-7-2-3-1-1-5-9"
     width="1.6844271"
     height="4.440762"
     x="-21.743237"
     y="50.163689"
     transform="rotate(-90)" />
  <rect
     style="fill:#000000;stroke-width:0.407821"
     id="rect11-7-2-2-0"
     width="1.6844271"
     height="4.440762"
     x="-21.777729"
     y="50.199043"
     transform="rotate(-90)" />
  <rect
     style="fill:#000000;stroke-width:0.407821"
     id="rect11-7-9-1-0"
     width="1.6844271"
     height="4.440762"
     x="-21.807011"
     y="50.216717"
     transform="rotate(-90)" />
  <rect
     style="fill:#000000;stroke-width:0.407821"
     id="rect11-7-2-3-5-2"
     width="1.6844271"
     height="4.440762"
     x="-21.782101"
     y="49.801922"
     transform="rotate(-90)" />
  <rect
     style="fill:#000000;stroke-width:0.407821"
     id="rect11-7-7-2-5"
     width="1.6844271"
     height="4.440762"
     x="-21.799679"
     y="49.796497"
     transform="rotate(-90)" />
</svg>
